<?xml version="1.0" encoding="utf-8"?>
<!-- Generator: Adobe Illustrator 16.0.0, SVG Export Plug-In . SVG Version: 6.00 Build 0)  -->
<!DOCTYPE svg PUBLIC "-//W3C//DTD SVG 1.1//EN" "http://www.w3.org/Graphics/SVG/1.1/DTD/svg11.dtd">
<svg version="1.1" id="Layer_1" xmlns="http://www.w3.org/2000/svg" xmlns:xlink="http://www.w3.org/1999/xlink" x="0px" y="0px"
	 width="435.929px" height="24.068px" viewBox="0 0 435.929 24.068" enable-background="new 0 0 435.929 24.068"
	 xml:space="preserve">
<g>
	<path fill="#555759" d="M44.924,19.951c-1.746,0-3.312-0.604-4.295-1.659c-0.883-0.942-1.236-2.171-0.996-3.458l0.396-2.195
		c0.506-2.873,3.729-5.209,7.189-5.209l0.512-0.002c0.789-0.002,2.32-0.008,3.477-0.008c0.918,0,1.408,0.006,1.504,0.01h0.193
		l0.637-3.742h-0.145c-0.07-0.004-0.609-0.004-1.607-0.004c-1.289,0-2.982,0-3.674,0.004h-0.307c-5.91,0-11.42,3.986-12.281,8.892
		l-0.398,2.19c-0.393,2.245,0.248,4.396,1.814,6.054c1.721,1.822,4.412,2.871,7.389,2.871h10.039l0.662-3.742L44.924,19.951
		L44.924,19.951z"/>
	<polygon fill="#555759" points="74.401,7.47 75.077,3.688 54.969,3.688 54.297,7.473 61.932,7.473 61.913,7.564 59.1,23.694 
		63.659,23.694 66.512,7.47 	"/>
	<polygon fill="#555759" points="76.448,3.688 72.887,23.694 77.45,23.694 80.973,3.688 	"/>
	<path fill="#555759" d="M104.852,3.688h-4.904L90.37,19.828L86.54,3.688h-4.814l4.322,17.868c0.305,1.3,1.908,2.319,3.641,2.319
		c1.781,0,3.691-0.973,4.445-2.265L104.852,3.688z"/>
	<path fill="#555759" d="M110.676,3.688c-3.277,0-6.326,2.193-6.795,4.894l-1.812,10.158c-0.217,1.237,0.141,2.424,1.014,3.348
		c0.965,1.021,2.463,1.607,4.113,1.607h10.998l0.672-3.783H107.79c-0.385,0-0.729-0.129-0.945-0.355
		c-0.193-0.202-0.271-0.466-0.227-0.75l0.586-3.199h10.264l0.684-3.791h-10.268l0.549-3.174c0.109-0.645,0.846-1.171,1.648-1.171
		h10.932l0.67-3.782L110.676,3.688L110.676,3.688z"/>
	<path fill="#555759" d="M32.698,17.158c-1.137,0-2.943,0.073-5.096,0.431l-1.121,6.122h5.545l1.152-6.551
		C33.04,17.158,32.875,17.158,32.698,17.158"/>
	<path fill="#555759" d="M28.694,5.659h-0.002c-0.221,0-0.801,0.074-1.521,0.753l-7.49,7.479c-0.633,0.102-6.506,0.92-10.322,2.411
		L22.27,4.062C26.141,0.397,29.272,0,30.438,0h0.02v0.012c0.969,0,2.76,0.199,3.883,1.54c0.932,1.106,1.205,2.772,0.822,4.945
		l-1.559,8.373l-5.557,0.068l1.52-8.076c0.07-0.403,0.02-0.712-0.152-0.92C29.208,5.695,28.874,5.659,28.694,5.659z"/>
	<path fill="#F7A800" d="M32.934,14.659c-6.066,0-24.133,0.003-32.934,9.034h8.031c9.434-8.011,24.398-8.104,25.053-8.104
		c0.133,0,0.258,0,0.385,0.007l0.172-0.938H32.934z"/>
	<polygon fill="#F7A800" points="126.018,0.752 121.838,23.703 134.436,23.703 134.881,21.269 125.114,21.269 126.629,12.948 
		134.532,12.948 134.977,10.514 127.071,10.514 128.407,3.188 137.866,3.188 138.311,0.752 	"/>
	<path fill="#F7A800" d="M320.623,2.325c-1.164-1.393-3.287-2.162-5.979-2.162c-2.041,0-3.978,0.195-5.748,0.583l-4.179,22.924
		h2.854l1.759-9.666l0.235,0.039c0.781,0.142,1.528,0.205,2.354,0.205c5.057,0,8.84-2.838,9.641-7.222
		C321.912,5.076,321.598,3.494,320.623,2.325z M318.527,7.041c-0.555,3.041-2.795,4.785-6.148,4.785
		c-0.881,0-1.729-0.111-2.364-0.209l-0.242-0.037l1.582-8.688l0.166-0.026c0.974-0.164,1.83-0.247,2.556-0.247
		c1.913,0,3.188,0.419,3.907,1.275C318.591,4.627,318.775,5.684,318.527,7.041z"/>
	<path fill="#F7A800" d="M168.028,13.861h2.631l-1.58,8.681c-1.928,0.949-4.127,1.44-6.131,1.44c-5.676,0-8.934-3.916-7.906-9.578
		c1.047-5.738,5.316-9.63,11.186-9.63c1.922,0,3.736,0.436,5.355,1.169l-1.268,2.15c-1.371-0.625-2.916-1.006-4.535-1.006
		c-4.385,0-7.176,2.963-7.934,7.127c-0.818,4.486,1.465,7.455,5.578,7.455c1.152,0,2.289-0.22,3.438-0.653
		c-0.018-0.354-0.004-0.737,0.061-1.087L168.028,13.861z"/>
	<path fill="#F7A800" d="M201.872,13.742h2.67l-1.604,8.807c-1.959,0.964-4.189,1.463-6.223,1.463c-5.76,0-9.064-3.973-8.023-9.721
		c1.062-5.82,5.396-9.771,11.352-9.771c1.949,0,3.791,0.441,5.436,1.187l-1.287,2.182c-1.393-0.631-2.959-1.018-4.602-1.018
		c-4.449,0-7.281,3.004-8.051,7.229c-0.83,4.556,1.484,7.566,5.66,7.566c1.168,0,2.324-0.224,3.488-0.662
		c-0.018-0.361-0.004-0.748,0.059-1.104L201.872,13.742z"/>
	<path fill="#F7A800" d="M354.186,23.67l2.823-16.014h-6.27l0.445-2.601h15.676l-0.402,2.601h-6.762l-2.826,16.014H354.186z"/>
	<path fill="#F7A800" d="M293.359,23.67l2.824-16.014h-6.27l0.442-2.601h15.677l-0.402,2.601h-6.762l-2.826,16.014H293.359z"/>
	<path fill="#F7A800" d="M153.426,5.838c-0.998-1.279-2.852-1.928-5.523-1.928c-2.715,0-5.68,0.942-8.492,1.981
		c-0.023,0.504-0.094,1.822-0.234,2.557l-2.865,15.255h2.93l2.801-14.91c0.062-0.345,0.111-0.976,0.111-0.98l0.008-0.185
		l0.168-0.069c1.73-0.704,3.68-1.185,5.166-1.185c1.492,0,2.59,0.434,3.254,1.279c0.652,0.842,0.59,2.148,0.307,3.671l-2.336,12.379
		h2.934l2.477-13.172C154.51,8.502,154.276,6.924,153.426,5.838z"/>
	<path fill="#F7A800" d="M287.197,5.982c-0.988-1.266-2.824-1.905-5.467-1.905c-2.688,0-5.623,0.934-8.408,1.959
		c-0.021,0.5-0.092,1.805-0.23,2.53l-2.836,15.104h2.898l2.775-14.762c0.059-0.343,0.107-0.965,0.107-0.971l0.01-0.185l0.166-0.067
		c1.713-0.695,3.641-1.173,5.11-1.173c1.478,0,2.563,0.432,3.224,1.269c0.645,0.83,0.582,2.126,0.303,3.633l-2.312,12.256h2.902
		l2.455-13.041C288.27,8.621,288.037,7.059,287.197,5.982z"/>
	<path fill="#F7A800" d="M343.475,4.494c-1.625,0-3.815,0.477-5.707,1.247l-0.351,0.146l0.474,2.307l0.455-0.179
		c0.807-0.312,2.86-1.044,4.512-1.044c1.479,0,2.488,0.314,3,0.938c0.369,0.455,0.483,1.097,0.33,1.903
		c-0.367,1.965-2.571,2.431-5.131,2.966l-0.16,0.035c-0.271,0.057-0.537,0.114-0.802,0.17c-3.057,0.672-6.278,1.874-7.004,5.717
		c-0.256,1.385-0.014,2.547,0.726,3.447c1.408,1.717,4.188,1.973,5.72,1.973c2.09,0,4.518-0.461,7.02-1.33l0.295-0.103l0.008-0.309
		c0.023-0.486,0.084-1.676,0.182-2.224l1.822-9.725c0.35-1.861,0.113-3.311-0.709-4.303C347.266,5.043,345.691,4.494,343.475,4.494z
		 M344.175,21.002c-1.041,0.385-2.627,0.643-4.022,0.643c-1.815,0-3.228-0.369-3.821-1.098c-0.39-0.478-0.513-1.124-0.361-1.926
		c0.477-2.547,3.43-3.142,5.871-3.669c0.543-0.112,1.051-0.223,1.5-0.348c0.791-0.21,1.441-0.397,2.092-0.77l-1.141,6.106
		C344.216,20.342,344.188,20.753,344.175,21.002z"/>
	<path fill="#F7A800" d="M182.157,4.517c-1.615,0-3.783,0.473-5.66,1.235l-0.348,0.143l0.469,2.291l0.451-0.177
		c0.799-0.313,2.838-1.037,4.479-1.037c1.467,0,2.467,0.312,2.973,0.931c0.367,0.451,0.48,1.087,0.328,1.89
		c-0.363,1.947-2.553,2.407-5.088,2.94l-0.162,0.034c-0.264,0.057-0.531,0.114-0.791,0.17c-3.033,0.665-6.23,1.858-6.947,5.669
		c-0.258,1.373-0.016,2.525,0.717,3.42c1.396,1.703,4.152,1.957,5.674,1.957c2.072,0,4.479-0.459,6.963-1.319l0.291-0.101
		l0.008-0.307c0.023-0.482,0.084-1.664,0.18-2.206l1.809-9.646c0.346-1.846,0.111-3.284-0.701-4.268
		C185.917,5.061,184.356,4.517,182.157,4.517z M182.854,20.888c-1.033,0.384-2.607,0.64-3.992,0.64c-1.803,0-3.201-0.364-3.791-1.09
		c-0.385-0.473-0.508-1.112-0.359-1.91c0.473-2.524,3.402-3.114,5.826-3.64c0.537-0.111,1.039-0.22,1.488-0.343
		c0.781-0.208,1.428-0.396,2.074-0.762l-1.131,6.057C182.893,20.234,182.864,20.642,182.854,20.888z"/>
	<path fill="#F7A800" d="M218.757,20.928c-1.312,0.455-2.573,0.688-3.753,0.688c-1.863,0-3.344-0.577-4.283-1.674
		c-0.938-1.096-1.303-2.698-1.064-4.649h12.545l0.092-0.322c0.16-0.561,0.281-1.08,0.363-1.541c0.465-2.76-0.016-5.161-1.354-6.758
		c-1.145-1.371-2.828-2.065-4.994-2.065c-5.781,0-8.713,5.168-9.467,9.589c-0.508,3.019,0.043,5.675,1.557,7.474
		c1.316,1.572,3.301,2.402,5.74,2.402c1.811,0,3.596-0.353,5.171-1.019l0.338-0.145l-0.45-2.136L218.757,20.928z M216.004,7.06
		c1.232,0,2.42,0.399,3.083,1.188c0.856,1.021,1.18,2.688,0.904,4.589h-9.883C210.702,9.913,212.715,7.06,216.004,7.06z"/>
	<path fill="#F7A800" d="M266.1,20.939c-1.315,0.458-2.591,0.689-3.774,0.689c-1.871,0-3.359-0.582-4.308-1.683
		c-0.938-1.099-1.31-2.711-1.065-4.674h12.61l0.092-0.326c0.162-0.562,0.283-1.084,0.365-1.549c0.467-2.772-0.015-5.188-1.356-6.791
		c-1.154-1.381-2.847-2.078-5.023-2.078c-5.814,0-8.758,5.195-9.514,9.642c-0.515,3.032,0.041,5.703,1.561,7.514
		c1.324,1.578,3.32,2.414,5.771,2.414c1.819,0,3.617-0.354,5.201-1.022l0.336-0.144l-0.453-2.149L266.1,20.939z M263.332,6.998
		c1.24,0,2.435,0.4,3.099,1.194c0.862,1.025,1.188,2.701,0.907,4.611h-9.932C258,9.866,260.025,6.998,263.332,6.998z"/>
	<path fill="#F7A800" d="M320.979,23.67l3.386-18.584h2.629l-2.966,16.271h7.748l-0.42,2.313H320.979z"/>
	<path fill="#F7A800" d="M365.384,23.67l3.439-18.789h10.131l-0.418,2.309h-7.504l-0.99,5.431h6.268l-0.418,2.311h-6.271
		l-1.604,8.74L365.384,23.67L365.384,23.67z"/>
	<path fill="#F7A800" d="M405.625,4.341c-4.104,0-8.002,3.724-8.699,8.306l-1.713,11.023h2.789l1.711-10.994
		c0.48-2.949,3.107-5.534,5.625-5.534h2.408l0.482-2.801H405.625z"/>
	<path fill="#F7A800" d="M434.953,5.586c-0.916-1.093-2.436-1.65-4.525-1.65c-2.512,0-4.506,0.689-6.9,1.804l-0.203,0.092
		l-0.143-0.176c-0.947-1.188-2.496-1.72-5.016-1.72c-2.105,0-4.98,0.642-8.537,1.906c-0.027,0.482-0.1,1.742-0.227,2.428
		l-2.805,15.4h3.025l2.715-14.906c0.061-0.338,0.105-0.996,0.105-1l0.014-0.183l0.168-0.067c1.287-0.489,2.971-1.052,4.58-1.052
		c1.336,0,2.33,0.382,2.963,1.137c0.684,0.821,0.891,2.022,0.605,3.573l-2.277,12.498h3.025l2.365-12.998
		c0.201-1.09,0.232-1.928,0.105-2.639l-0.045-0.226l0.209-0.09c1.438-0.625,3.143-1.257,4.859-1.257c1.354,0,2.352,0.38,2.977,1.125
		c0.684,0.816,0.883,2.039,0.594,3.621l-2.268,12.462h3.021l2.422-13.314C436.142,8.289,435.869,6.686,434.953,5.586z"/>
	<path fill="#F7A800" d="M251.412,5.483c-0.92-1.101-2.453-1.66-4.553-1.66c-2.525,0-4.529,0.693-6.941,1.812l-0.205,0.094
		l-0.139-0.178c-0.957-1.195-2.512-1.729-5.047-1.729c-2.117,0-5.01,0.646-8.584,1.919c-0.027,0.485-0.098,1.75-0.229,2.44
		l-2.82,15.488h3.043l2.73-14.992c0.061-0.34,0.104-1.002,0.104-1.004l0.017-0.188l0.17-0.064c1.293-0.491,2.985-1.06,4.602-1.06
		c1.348,0,2.344,0.386,2.98,1.146c0.688,0.824,0.897,2.033,0.608,3.594l-2.291,12.568h3.043l2.384-13.072
		c0.2-1.096,0.233-1.938,0.102-2.653l-0.043-0.228l0.209-0.09C242,7,243.714,6.363,245.445,6.363c1.355,0,2.361,0.382,2.986,1.134
		c0.689,0.819,0.891,2.049,0.6,3.641L246.75,23.67h3.041l2.437-13.394C252.609,8.201,252.332,6.588,251.412,5.483z"/>
	<path fill="#F7A800" d="M377.816,14.272c1.055-5.794,4.924-9.763,10.367-9.763c5.453,0,7.84,3.997,6.785,9.763
		c-1.041,5.708-4.965,9.708-10.332,9.708C379.273,23.98,376.779,19.98,377.816,14.272z M392.162,14.272
		c0.771-4.222-0.481-7.421-4.402-7.421c-3.92,0-6.366,3.199-7.135,7.421c-0.656,3.612,0.213,7.362,4.441,7.362
		C389.292,21.635,391.505,17.885,392.162,14.272z"/>
</g>
</svg>
